<svg version="1.0" xmlns="http://www.w3.org/2000/svg" viewBox="0 0 200 200">
    <defs>
        <!-- Gradient -->
        <linearGradient id="grad1" x1="0%" y1="0%" x2="100%" y2="100%">
            <stop offset="0%" style="stop-color:#ffc86b;stop-opacity:1" />
            <stop offset="100%" style="stop-color:#ff8c00;stop-opacity:1" />
        </linearGradient>
        
        <!-- Glow -->
        <filter id="glow" x="-50%" y="-50%" width="200%" height="200%">
            <feGaussianBlur stdDeviation="15" result="coloredBlur" />
            <feMerge>
                <feMergeNode in="coloredBlur" />
                <feMergeNode in="SourceGraphic" />
            </feMerge>
        </filter>
    </defs>

    <g transform="translate(0.000000,200.000000) scale(0.100000,-0.100000)" fill="url(#grad1)" stroke="white" stroke-width="20" filter="url(#glow)">
        <path d="M100 1000 l0 -630 150 0 150 0 0 250 0 250 175 0 175 0 0 125 0 125 -175 0 -175 0 0 108 c0 59 -3 117 -6 130 l-6 22 194 0 194 0 34 113 c18 61 35 118 38 125 3 9 -75 12 -372 12 l-376 0 0 -630z" />
        <path d="M1097 1520 l-58 -110 60 0 c34 0 61 -4 61 -9 0 -4 -72 -234 -160 -511 -88 -277 -160 -507 -160 -511 0 -5 65 -9 145 -9 l144 0 11 43 c7 23 22 78 34 122 l23 80 184 3 185 2 33 -125 34 -125 157 0 157 0 -196 628 -196 627 -200 3 -200 2 -58 -110z m342 -460 c28 -102 51 -188 51 -193 0 -4 -49 -7 -110 -7 -60 0 -110 3 -110 6 0 7 80 285 102 352 5 18 11 32 13 30 2 -2 26 -86 54 -188z" />
    </g>
</svg>
