<?xml version="1.0" encoding="UTF-8" standalone="no"?>
<!-- Created with Inkscape (http://www.inkscape.org/) -->

<svg
   xmlns:dc="http://purl.org/dc/elements/1.1/"
   xmlns:cc="http://creativecommons.org/ns#"
   xmlns:rdf="http://www.w3.org/1999/02/22-rdf-syntax-ns#"
   xmlns:svg="http://www.w3.org/2000/svg"
   xmlns="http://www.w3.org/2000/svg"
   xmlns:sodipodi="http://sodipodi.sourceforge.net/DTD/sodipodi-0.dtd"
   xmlns:inkscape="http://www.inkscape.org/namespaces/inkscape"
   id="svg3080"
   version="1.1"
   inkscape:version="0.48.4 r9939"
   width="652.16888"
   height="396.26093"
   xml:space="preserve"
   sodipodi:docname="actic.svg"><metadata
     id="metadata3086"><rdf:RDF><cc:Work
         rdf:about=""><dc:format>image/svg+xml</dc:format><dc:type
           rdf:resource="http://purl.org/dc/dcmitype/StillImage" /><dc:title /></cc:Work></rdf:RDF></metadata><defs
     id="defs3084" /><sodipodi:namedview
     pagecolor="#ffffff"
     bordercolor="#666666"
     borderopacity="1"
     objecttolerance="10"
     gridtolerance="10"
     guidetolerance="10"
     inkscape:pageopacity="0"
     inkscape:pageshadow="2"
     inkscape:window-width="1280"
     inkscape:window-height="965"
     id="namedview3082"
     showgrid="false"
     inkscape:zoom="0.69044441"
     inkscape:cx="326.77198"
     inkscape:cy="205.40159"
     inkscape:window-x="0"
     inkscape:window-y="27"
     inkscape:window-maximized="1"
     inkscape:current-layer="g3088"
     fit-margin-top="0"
     fit-margin-left="0"
     fit-margin-right="0"
     fit-margin-bottom="0" /><g
     id="g3088"
     inkscape:groupmode="layer"
     inkscape:label="ink_ext_XXXXXX"
     transform="matrix(1.25,0,0,-1.25,-45.728019,893.94447)"><g
       id="g5733"
       transform="matrix(3.2436732,0,0,3.253574,-811.06724,-1252.3034)"
       inkscape:export-xdpi="141.27057"
       inkscape:export-ydpi="141.27057"><path
         d="m 271.107,507.273 c -5.403,0 -9.783,4.38 -9.783,9.783 l 0,77.867 c 0,5.403 4.38,9.783 9.783,9.783 l 151.064,10e-4 0,-70.563 c 0,-3.999 -1.581,-7.635 -4.148,-10.309 l -11.817,-11.819 c -2.837,-2.843 -6.728,-4.636 -11.031,-4.743 l -124.068,0"
         style="fill:#fab20b;fill-opacity:1;fill-rule:nonzero;stroke:none"
         id="path4134"
         inkscape:connector-curvature="0" /><path
         d="m 308.567,533.042 c 0,-1.45 -0.188,-5.569 -5.381,-5.569 -2.153,0 -4.071,0.609 -4.071,3.089 0,2.433 1.872,3.135 3.93,3.556 2.059,0.374 4.399,0.421 5.522,1.404 l 0,-2.48 z m -8.703,7.392 c 0.234,2.621 1.871,3.65 4.398,3.65 2.339,0 4.305,-0.421 4.305,-3.275 0,-2.714 -3.79,-2.573 -7.862,-3.182 -4.117,-0.562 -8.234,-1.872 -8.234,-7.345 0,-4.96 3.65,-7.253 8.234,-7.253 2.949,0 6.037,0.796 8.142,2.994 0.047,-0.795 0.234,-1.59 0.468,-2.339 l 6.737,0 c -0.608,0.982 -0.841,3.181 -0.841,5.381 l 0,12.586 c 0,5.801 -5.803,6.878 -10.622,6.878 -5.427,0 -10.995,-1.872 -11.369,-8.095 l 6.644,0"
         style="fill:#ed192d;fill-opacity:1;fill-rule:evenodd;stroke:none"
         id="path4136"
         inkscape:connector-curvature="0" /><path
         d="m 341.082,539.359 c -0.421,6.175 -5.661,9.17 -11.369,9.17 -7.861,0 -12.353,-5.568 -12.353,-13.101 0,-7.253 4.913,-12.399 12.212,-12.399 6.364,0 10.808,3.509 11.651,9.919 l -6.41,0 c -0.422,-2.948 -2.2,-4.912 -5.287,-4.912 -4.165,0 -5.522,4.164 -5.522,7.626 0,3.556 1.405,7.86 5.662,7.86 2.761,0 4.492,-1.45 4.913,-4.163 l 6.503,0"
         style="fill:#ed192d;fill-opacity:1;fill-rule:nonzero;stroke:none"
         id="path4138"
         inkscape:connector-curvature="0" /><path
         d="m 348.852,523.684 6.701,0 0,24.841 9.134,0 0,5.634 -24.97,0 0,-5.634 9.135,0 0,-24.841"
         style="fill:#ffffff;fill-opacity:1;fill-rule:nonzero;stroke:none"
         id="path4140"
         inkscape:connector-curvature="0" /><path
         d="m 367.569,523.684 6.70117,0 0,30.4754 -6.70117,0 0,-30.4754 z"
         style="fill:#ffffff;fill-opacity:1;fill-rule:nonzero;stroke:none"
         id="path4142"
         inkscape:connector-curvature="0" /><path
         d="m 405.314,543.916 c -0.812,7.043 -6.445,10.969 -13.146,10.969 -9.434,0 -14.982,-7.043 -14.982,-16.091 0,-8.793 5.548,-15.835 14.982,-15.835 7.469,0 12.719,4.865 13.402,12.462 l -6.488,0 c -0.512,-4.012 -2.817,-6.828 -6.914,-6.828 -6.019,0 -8.281,5.121 -8.281,10.201 0,5.335 2.262,10.457 8.281,10.457 3.328,0 6.231,-2.305 6.658,-5.335 l 6.488,0"
         style="fill:#ffffff;fill-opacity:1;fill-rule:nonzero;stroke:none"
         id="path4144"
         inkscape:connector-curvature="0" /><path
         d="m 348.877,560.843 0.739,0 0,3.353 -0.739,0 0,-3.353 z m 0,3.93 0.739,0 0,0.7 -0.739,0 0,-0.7"
         style="fill:#ffffff;fill-opacity:1;fill-rule:evenodd;stroke:none"
         id="path4146"
         inkscape:connector-curvature="0" /><path
         d="m 352.241,560.843 0.73906,0 0,4.63047 -0.73906,0 0,-4.63047 z"
         style="fill:#ffffff;fill-opacity:1;fill-rule:nonzero;stroke:none"
         id="path4148"
         inkscape:connector-curvature="0" /><path
         d="m 355.852,561.971 c 0,-0.466 -0.506,-0.635 -0.83,-0.635 -0.259,0 -0.681,0.097 -0.681,0.428 0,0.389 0.286,0.506 0.604,0.557 0.324,0.059 0.68,0.052 0.907,0.202 l 0,-0.552 z m 0.74,1.343 c 0,0.707 -0.688,0.973 -1.343,0.973 -0.739,0 -1.472,-0.253 -1.524,-1.116 l 0.739,0 c 0.033,0.363 0.325,0.532 0.74,0.532 0.298,0 0.694,-0.071 0.694,-0.454 0,-0.435 -0.473,-0.376 -1.005,-0.473 -0.623,-0.072 -1.291,-0.208 -1.291,-1.045 0,-0.654 0.545,-0.979 1.148,-0.979 0.396,0 0.869,0.123 1.161,0.409 0.058,-0.305 0.272,-0.409 0.571,-0.409 0.123,0 0.356,0.046 0.466,0.085 l 0,0.512 c -0.077,-0.013 -0.136,-0.013 -0.181,-0.013 -0.137,0 -0.175,0.071 -0.175,0.253 l 0,1.725"
         style="fill:#ffffff;fill-opacity:1;fill-rule:evenodd;stroke:none"
         id="path4150"
         inkscape:connector-curvature="0" /><path
         d="m 362.193,563.074 c -0.071,0.823 -0.732,1.213 -1.511,1.213 -1.102,0 -1.653,-0.792 -1.653,-1.803 0,-0.986 0.576,-1.732 1.627,-1.732 0.863,0 1.401,0.48 1.537,1.349 l -0.739,0 c -0.072,-0.48 -0.37,-0.765 -0.798,-0.765 -0.642,0 -0.888,0.59 -0.888,1.148 0,1.018 0.538,1.219 0.921,1.219 0.408,0 0.707,-0.221 0.765,-0.629 l 0.739,0"
         style="fill:#ffffff;fill-opacity:1;fill-rule:nonzero;stroke:none"
         id="path4152"
         inkscape:connector-curvature="0" /><path
         d="m 364.332,561.336 c -0.661,0 -0.953,0.603 -0.953,1.187 0,0.577 0.292,1.18 0.953,1.18 0.662,0 0.954,-0.603 0.954,-1.18 0,-0.584 -0.292,-1.187 -0.954,-1.187 z m 0,-0.584 c 1.077,0 1.693,0.739 1.693,1.771 0,1.024 -0.616,1.764 -1.693,1.764 -1.076,0 -1.692,-0.74 -1.692,-1.764 0,-1.032 0.616,-1.771 1.692,-1.771"
         style="fill:#ffffff;fill-opacity:1;fill-rule:evenodd;stroke:none"
         id="path4154"
         inkscape:connector-curvature="0" /><path
         d="m 366.64,560.843 0.74,0 0,1.991 c 0,0.558 0.35,0.869 0.733,0.869 0.447,0 0.59,-0.246 0.59,-0.707 l 0,-2.153 0.739,0 0,1.965 c 0,0.564 0.214,0.895 0.713,0.895 0.577,0 0.61,-0.37 0.61,-0.901 l 0,-1.959 0.739,0 0,2.315 c 0,0.817 -0.415,1.129 -1.122,1.129 -0.486,0 -0.804,-0.214 -1.05,-0.558 -0.15,0.382 -0.532,0.558 -0.941,0.558 -0.532,0 -0.811,-0.227 -1.031,-0.558 l -0.019,0 0,0.467 -0.701,0 0,-3.353"
         style="fill:#ffffff;fill-opacity:1;fill-rule:nonzero;stroke:none"
         id="path4156"
         inkscape:connector-curvature="0" /><path
         d="m 375.226,564.196 -0.739,0 0,-1.946 c 0,-0.519 -0.208,-0.914 -0.824,-0.914 -0.402,0 -0.642,0.214 -0.642,0.804 l 0,2.056 -0.739,0 0,-2.127 c 0,-0.876 0.376,-1.317 1.251,-1.317 0.37,0 0.772,0.221 0.954,0.558 l 0.013,0 0,-0.467 0.726,0 0,3.353"
         style="fill:#ffffff;fill-opacity:1;fill-rule:nonzero;stroke:none"
         id="path4158"
         inkscape:connector-curvature="0" /><path
         d="m 376.004,560.843 0.739,0 0,1.978 c 0,0.493 0.318,0.882 0.811,0.882 0.434,0 0.642,-0.227 0.655,-0.752 l 0,-2.108 0.739,0 0,2.302 c 0,0.752 -0.46,1.142 -1.187,1.142 -0.441,0 -0.823,-0.227 -1.044,-0.597 l -0.013,0.013 0,0.493 -0.7,0 0,-3.353"
         style="fill:#ffffff;fill-opacity:1;fill-rule:nonzero;stroke:none"
         id="path4160"
         inkscape:connector-curvature="0" /><path
         d="m 379.745,560.843 0.74,0 0,3.353 -0.74,0 0,-3.353 z m 0,3.93 0.74,0 0,0.7 -0.74,0 0,-0.7"
         style="fill:#ffffff;fill-opacity:1;fill-rule:evenodd;stroke:none"
         id="path4162"
         inkscape:connector-curvature="0" /><path
         d="m 384.291,563.074 c -0.071,0.823 -0.733,1.213 -1.511,1.213 -1.103,0 -1.654,-0.792 -1.654,-1.803 0,-0.986 0.577,-1.732 1.628,-1.732 0.862,0 1.401,0.48 1.537,1.349 l -0.739,0 c -0.072,-0.48 -0.37,-0.765 -0.798,-0.765 -0.642,0 -0.888,0.59 -0.888,1.148 0,1.018 0.538,1.219 0.92,1.219 0.409,0 0.707,-0.221 0.766,-0.629 l 0.739,0"
         style="fill:#ffffff;fill-opacity:1;fill-rule:nonzero;stroke:none"
         id="path4164"
         inkscape:connector-curvature="0" /><path
         d="m 386.962,561.971 c 0,-0.466 -0.506,-0.635 -0.83,-0.635 -0.259,0 -0.681,0.097 -0.681,0.428 0,0.389 0.285,0.506 0.603,0.557 0.325,0.059 0.681,0.052 0.908,0.202 l 0,-0.552 z m 0.74,1.343 c 0,0.707 -0.688,0.973 -1.343,0.973 -0.739,0 -1.472,-0.253 -1.524,-1.116 l 0.739,0 c 0.033,0.363 0.324,0.532 0.74,0.532 0.298,0 0.693,-0.071 0.693,-0.454 0,-0.435 -0.473,-0.376 -1.005,-0.473 -0.622,-0.072 -1.29,-0.208 -1.29,-1.045 0,-0.654 0.544,-0.979 1.148,-0.979 0.395,0 0.869,0.123 1.16,0.409 0.059,-0.305 0.273,-0.409 0.571,-0.409 0.123,0 0.357,0.046 0.467,0.085 l 0,0.512 c -0.078,-0.013 -0.136,-0.013 -0.181,-0.013 -0.137,0 -0.175,0.071 -0.175,0.253 l 0,1.725"
         style="fill:#ffffff;fill-opacity:1;fill-rule:evenodd;stroke:none"
         id="path4166"
         inkscape:connector-curvature="0" /><path
         d="m 391.501,563.074 c -0.071,0.823 -0.733,1.213 -1.511,1.213 -1.102,0 -1.654,-0.792 -1.654,-1.803 0,-0.986 0.577,-1.732 1.628,-1.732 0.863,0 1.401,0.48 1.537,1.349 l -0.739,0 c -0.072,-0.48 -0.37,-0.765 -0.798,-0.765 -0.642,0 -0.889,0.59 -0.889,1.148 0,1.018 0.539,1.219 0.921,1.219 0.409,0 0.707,-0.221 0.766,-0.629 l 0.739,0"
         style="fill:#ffffff;fill-opacity:1;fill-rule:nonzero;stroke:none"
         id="path4168"
         inkscape:connector-curvature="0" /><path
         d="m 392.123,560.843 0.739,0 0,3.353 -0.739,0 0,-3.353 z m 0,3.93 0.739,0 0,0.7 -0.739,0 0,-0.7"
         style="fill:#ffffff;fill-opacity:1;fill-rule:evenodd;stroke:none"
         id="path4170"
         inkscape:connector-curvature="0" /><path
         d="m 394.71,564.656 0.538,0 0.921,0.928 -0.876,0 -0.583,-0.928 z m 0.492,-3.32 c -0.661,0 -0.953,0.603 -0.953,1.187 0,0.577 0.292,1.18 0.953,1.18 0.662,0 0.954,-0.603 0.954,-1.18 0,-0.584 -0.292,-1.187 -0.954,-1.187 z m 0,-0.584 c 1.077,0 1.693,0.739 1.693,1.771 0,1.024 -0.616,1.764 -1.693,1.764 -1.076,0 -1.692,-0.74 -1.692,-1.764 0,-1.032 0.616,-1.771 1.692,-1.771"
         style="fill:#ffffff;fill-opacity:1;fill-rule:evenodd;stroke:none"
         id="path4172"
         inkscape:connector-curvature="0" /><path
         d="m 349.434,569.015 c 0,0.603 0.247,1.219 0.941,1.219 0.57,0 0.927,-0.441 0.927,-1.18 0,-0.584 -0.279,-1.187 -0.94,-1.187 -0.642,0 -0.928,0.571 -0.928,1.148 z m 2.581,2.99 -0.739,0 0,-1.712 -0.013,0 c -0.227,0.37 -0.694,0.525 -1.115,0.525 -0.733,0 -1.453,-0.532 -1.453,-1.745 0,-1.005 0.512,-1.789 1.569,-1.789 0.422,0 0.843,0.162 1.038,0.545 l 0.013,0 0,-0.454 0.7,0 0,4.63"
         style="fill:#ffffff;fill-opacity:1;fill-rule:evenodd;stroke:none"
         id="path4174"
         inkscape:connector-curvature="0" /><path
         d="m 355.861,568.86 c 0.123,1.005 -0.526,1.958 -1.583,1.958 -0.999,0 -1.621,-0.817 -1.621,-1.77 0,-1.032 0.59,-1.764 1.64,-1.764 0.733,0 1.356,0.408 1.518,1.141 l -0.7,0 c -0.13,-0.37 -0.39,-0.558 -0.818,-0.558 -0.616,0 -0.901,0.467 -0.901,0.993 l 2.465,0 z m -2.465,0.486 c 0.019,0.499 0.37,0.888 0.882,0.888 0.499,0 0.817,-0.421 0.843,-0.888 l -1.725,0"
         style="fill:#ffffff;fill-opacity:1;fill-rule:evenodd;stroke:none"
         id="path4176"
         inkscape:connector-curvature="0" /><path
         d="m 358.245,567.375 0.73945,0 0,4.63008 -0.73945,0 0,-4.63008 z"
         style="fill:#ffffff;fill-opacity:1;fill-rule:nonzero;stroke:none"
         id="path4178"
         inkscape:connector-curvature="0" /><path
         d="m 361.857,568.503 c 0,-0.467 -0.506,-0.636 -0.83,-0.636 -0.26,0 -0.681,0.098 -0.681,0.428 0,0.389 0.285,0.506 0.603,0.558 0.324,0.058 0.681,0.052 0.908,0.201 l 0,-0.551 z m 0.739,1.342 c 0,0.707 -0.687,0.973 -1.342,0.973 -0.74,0 -1.472,-0.253 -1.524,-1.115 l 0.739,0 c 0.033,0.363 0.324,0.531 0.74,0.531 0.298,0 0.693,-0.071 0.693,-0.454 0,-0.434 -0.473,-0.376 -1.005,-0.473 -0.622,-0.071 -1.29,-0.207 -1.29,-1.044 0,-0.655 0.544,-0.979 1.147,-0.979 0.396,0 0.869,0.123 1.161,0.408 0.059,-0.304 0.273,-0.408 0.571,-0.408 0.123,0 0.357,0.045 0.467,0.084 l 0,0.512 c -0.078,-0.013 -0.136,-0.013 -0.182,-0.013 -0.136,0 -0.175,0.072 -0.175,0.253 l 0,1.725"
         style="fill:#ffffff;fill-opacity:1;fill-rule:evenodd;stroke:none"
         id="path4180"
         inkscape:connector-curvature="0" /><path
         d="m 365.214,567.375 0.74,0 0,3.352 -0.74,0 0,-3.352 z m 0,3.93 0.74,0 0,0.7 -0.74,0 0,-0.7"
         style="fill:#ffffff;fill-opacity:1;fill-rule:evenodd;stroke:none"
         id="path4182"
         inkscape:connector-curvature="0" /><path
         d="m 366.757,567.375 0.74,0 0,1.977 c 0,0.493 0.317,0.882 0.81,0.882 0.435,0 0.642,-0.227 0.655,-0.752 l 0,-2.107 0.74,0 0,2.302 c 0,0.752 -0.461,1.141 -1.187,1.141 -0.441,0 -0.824,-0.227 -1.044,-0.597 l -0.013,0.013 0,0.493 -0.701,0 0,-3.352"
         style="fill:#ffffff;fill-opacity:1;fill-rule:nonzero;stroke:none"
         id="path4184"
         inkscape:connector-curvature="0" /><path
         d="m 370.149,570.176 0.551,0 0,-2.801 0.739,0 0,2.801 0.629,0 0,0.551 -0.629,0 0,0.344 c 0,0.279 0.163,0.35 0.364,0.35 0.149,0 0.246,-0.013 0.343,-0.039 l 0,0.577 c -0.116,0.033 -0.285,0.046 -0.519,0.046 -0.479,0 -0.927,-0.143 -0.927,-0.999 l 0,-0.279 -0.551,0 0,-0.551"
         style="fill:#ffffff;fill-opacity:1;fill-rule:nonzero;stroke:none"
         id="path4186"
         inkscape:connector-curvature="0" /><path
         d="m 374.059,567.867 c -0.661,0 -0.953,0.603 -0.953,1.187 0,0.577 0.292,1.18 0.953,1.18 0.662,0 0.954,-0.603 0.954,-1.18 0,-0.584 -0.292,-1.187 -0.954,-1.187 z m 0,-0.583 c 1.077,0 1.693,0.739 1.693,1.77 0,1.025 -0.616,1.764 -1.693,1.764 -1.076,0 -1.692,-0.739 -1.692,-1.764 0,-1.031 0.616,-1.77 1.692,-1.77"
         style="fill:#ffffff;fill-opacity:1;fill-rule:evenodd;stroke:none"
         id="path4188"
         inkscape:connector-curvature="0" /><path
         d="m 376.367,567.375 0.739,0 0,1.595 c 0,0.739 0.402,1.148 0.908,1.148 0.104,0 0.214,-0.02 0.318,-0.033 l 0,0.713 c -0.065,0.007 -0.111,0.02 -0.279,0.02 -0.454,0 -0.895,-0.382 -0.979,-0.739 l -0.013,0 0,0.648 -0.694,0 0,-3.352"
         style="fill:#ffffff;fill-opacity:1;fill-rule:nonzero;stroke:none"
         id="path4190"
         inkscape:connector-curvature="0" /><path
         d="m 378.648,567.375 0.739,0 0,1.991 c 0,0.557 0.351,0.868 0.733,0.868 0.448,0 0.591,-0.246 0.591,-0.707 l 0,-2.152 0.739,0 0,1.964 c 0,0.565 0.214,0.895 0.713,0.895 0.577,0 0.61,-0.369 0.61,-0.901 l 0,-1.958 0.739,0 0,2.314 c 0,0.818 -0.415,1.129 -1.122,1.129 -0.486,0 -0.804,-0.214 -1.051,-0.558 -0.149,0.383 -0.531,0.558 -0.94,0.558 -0.532,0 -0.811,-0.227 -1.031,-0.558 l -0.02,0 0,0.467 -0.7,0 0,-3.352"
         style="fill:#ffffff;fill-opacity:1;fill-rule:nonzero;stroke:none"
         id="path4192"
         inkscape:connector-curvature="0" /><path
         d="m 386.358,568.503 c 0,-0.467 -0.506,-0.636 -0.83,-0.636 -0.259,0 -0.681,0.098 -0.681,0.428 0,0.389 0.285,0.506 0.603,0.558 0.325,0.058 0.681,0.052 0.908,0.201 l 0,-0.551 z m 0.739,1.342 c 0,0.707 -0.687,0.973 -1.342,0.973 -0.739,0 -1.472,-0.253 -1.524,-1.115 l 0.739,0 c 0.033,0.363 0.325,0.531 0.74,0.531 0.298,0 0.694,-0.071 0.694,-0.454 0,-0.434 -0.474,-0.376 -1.006,-0.473 -0.622,-0.071 -1.29,-0.207 -1.29,-1.044 0,-0.655 0.544,-0.979 1.147,-0.979 0.396,0 0.87,0.123 1.161,0.408 0.059,-0.304 0.273,-0.408 0.571,-0.408 0.123,0 0.357,0.045 0.467,0.084 l 0,0.512 c -0.078,-0.013 -0.136,-0.013 -0.181,-0.013 -0.137,0 -0.176,0.072 -0.176,0.253 l 0,1.725"
         style="fill:#ffffff;fill-opacity:1;fill-rule:evenodd;stroke:none"
         id="path4194"
         inkscape:connector-curvature="0" /><path
         d="m 390.897,569.605 c -0.072,0.824 -0.733,1.213 -1.511,1.213 -1.102,0 -1.654,-0.791 -1.654,-1.803 0,-0.986 0.577,-1.731 1.628,-1.731 0.863,0 1.401,0.48 1.537,1.348 l -0.739,0 c -0.072,-0.479 -0.37,-0.765 -0.798,-0.765 -0.642,0 -0.889,0.59 -0.889,1.148 0,1.019 0.539,1.219 0.922,1.219 0.408,0 0.706,-0.22 0.765,-0.629 l 0.739,0"
         style="fill:#ffffff;fill-opacity:1;fill-rule:nonzero;stroke:none"
         id="path4196"
         inkscape:connector-curvature="0" /><path
         d="m 391.519,567.375 0.739,0 0,3.352 -0.739,0 0,-3.352 z m 0,3.93 0.739,0 0,0.7 -0.739,0 0,-0.7"
         style="fill:#ffffff;fill-opacity:1;fill-rule:evenodd;stroke:none"
         id="path4198"
         inkscape:connector-curvature="0" /><path
         d="m 394.106,571.188 0.538,0 0.921,0.927 -0.876,0 -0.583,-0.927 z m 0.492,-3.321 c -0.661,0 -0.953,0.603 -0.953,1.187 0,0.577 0.292,1.18 0.953,1.18 0.662,0 0.954,-0.603 0.954,-1.18 0,-0.584 -0.292,-1.187 -0.954,-1.187 z m 0,-0.583 c 1.077,0 1.693,0.739 1.693,1.77 0,1.025 -0.616,1.764 -1.693,1.764 -1.076,0 -1.692,-0.739 -1.692,-1.764 0,-1.031 0.616,-1.77 1.692,-1.77"
         style="fill:#ffffff;fill-opacity:1;fill-rule:evenodd;stroke:none"
         id="path4200"
         inkscape:connector-curvature="0" /><path
         d="m 351.899,575.391 c 0.123,1.005 -0.526,1.959 -1.583,1.959 -0.998,0 -1.621,-0.818 -1.621,-1.771 0,-1.031 0.59,-1.764 1.641,-1.764 0.732,0 1.355,0.409 1.517,1.142 l -0.7,0 c -0.13,-0.37 -0.389,-0.558 -0.817,-0.558 -0.616,0 -0.902,0.467 -0.902,0.992 l 2.465,0 z m -2.465,0.486 c 0.02,0.5 0.37,0.889 0.882,0.889 0.5,0 0.818,-0.421 0.843,-0.889 l -1.725,0"
         style="fill:#ffffff;fill-opacity:1;fill-rule:evenodd;stroke:none"
         id="path4202"
         inkscape:connector-curvature="0" /><path
         d="m 352.462,573.906 0.74,0 0,1.978 c 0,0.493 0.317,0.882 0.81,0.882 0.434,0 0.642,-0.227 0.655,-0.752 l 0,-2.108 0.74,0 0,2.302 c 0,0.753 -0.461,1.142 -1.187,1.142 -0.441,0 -0.824,-0.227 -1.045,-0.597 l -0.012,0.013 0,0.493 -0.701,0 0,-3.353"
         style="fill:#ffffff;fill-opacity:1;fill-rule:nonzero;stroke:none"
         id="path4204"
         inkscape:connector-curvature="0" /><path
         d="m 357.649,576.708 0.558,0 0,-1.978 c 0.013,-0.558 0.156,-0.857 0.927,-0.857 0.162,0 0.318,0.027 0.48,0.04 l 0,0.57 c -0.104,-0.026 -0.207,-0.026 -0.311,-0.026 -0.331,0 -0.357,0.156 -0.357,0.461 l 0,1.79 0.668,0 0,0.551 -0.668,0 0,1.005 -0.739,0 0,-1.005 -0.558,0 0,-0.551"
         style="fill:#ffffff;fill-opacity:1;fill-rule:nonzero;stroke:none"
         id="path4206"
         inkscape:connector-curvature="0" /><path
         d="m 363.186,575.391 c 0.123,1.005 -0.526,1.959 -1.583,1.959 -0.999,0 -1.621,-0.818 -1.621,-1.771 0,-1.031 0.59,-1.764 1.641,-1.764 0.732,0 1.355,0.409 1.517,1.142 l -0.7,0 c -0.13,-0.37 -0.389,-0.558 -0.817,-0.558 -0.616,0 -0.902,0.467 -0.902,0.992 l 2.465,0 z m -2.465,0.486 c 0.02,0.5 0.37,0.889 0.882,0.889 0.499,0 0.817,-0.421 0.843,-0.889 l -1.725,0"
         style="fill:#ffffff;fill-opacity:1;fill-rule:evenodd;stroke:none"
         id="path4208"
         inkscape:connector-curvature="0" /><path
         d="m 366.752,576.137 c -0.072,0.824 -0.733,1.213 -1.511,1.213 -1.103,0 -1.654,-0.792 -1.654,-1.803 0,-0.986 0.577,-1.732 1.627,-1.732 0.863,0 1.401,0.48 1.538,1.349 l -0.74,0 c -0.071,-0.48 -0.369,-0.765 -0.798,-0.765 -0.641,0 -0.888,0.59 -0.888,1.148 0,1.018 0.538,1.219 0.921,1.219 0.409,0 0.707,-0.221 0.765,-0.629 l 0.74,0"
         style="fill:#ffffff;fill-opacity:1;fill-rule:nonzero;stroke:none"
         id="path4210"
         inkscape:connector-curvature="0" /><path
         d="m 367.354,573.906 0.739,0 0,1.978 c 0,0.493 0.318,0.882 0.811,0.882 0.434,0 0.642,-0.227 0.655,-0.752 l 0,-2.108 0.739,0 0,2.302 c 0,0.753 -0.46,1.142 -1.187,1.142 -0.441,0 -0.823,-0.227 -1.044,-0.597 l -0.013,0.013 0,0.493 -0.7,0 0,-3.353"
         style="fill:#ffffff;fill-opacity:1;fill-rule:nonzero;stroke:none"
         id="path4212"
         inkscape:connector-curvature="0" /><path
         d="m 372.613,574.399 c -0.661,0 -0.953,0.603 -0.953,1.187 0,0.577 0.292,1.18 0.953,1.18 0.662,0 0.953,-0.603 0.953,-1.18 0,-0.584 -0.291,-1.187 -0.953,-1.187 z m 0,-0.584 c 1.077,0 1.693,0.739 1.693,1.771 0,1.024 -0.616,1.764 -1.693,1.764 -1.076,0 -1.692,-0.74 -1.692,-1.764 0,-1.032 0.616,-1.771 1.692,-1.771"
         style="fill:#ffffff;fill-opacity:1;fill-rule:evenodd;stroke:none"
         id="path4214"
         inkscape:connector-curvature="0" /><path
         d="m 374.94,573.906 0.73945,0 0,4.63047 -0.73945,0 0,-4.63047 z"
         style="fill:#ffffff;fill-opacity:1;fill-rule:nonzero;stroke:none"
         id="path4216"
         inkscape:connector-curvature="0" /><path
         d="m 378.02,574.399 c -0.661,0 -0.953,0.603 -0.953,1.187 0,0.577 0.292,1.18 0.953,1.18 0.662,0 0.953,-0.603 0.953,-1.18 0,-0.584 -0.291,-1.187 -0.953,-1.187 z m 0,-0.584 c 1.076,0 1.693,0.739 1.693,1.771 0,1.024 -0.617,1.764 -1.693,1.764 -1.077,0 -1.693,-0.74 -1.693,-1.764 0,-1.032 0.616,-1.771 1.693,-1.771"
         style="fill:#ffffff;fill-opacity:1;fill-rule:evenodd;stroke:none"
         id="path4218"
         inkscape:connector-curvature="0" /><path
         d="m 381.787,574.49 c -0.616,0 -0.882,0.557 -0.882,1.108 0,0.558 0.227,1.168 0.882,1.168 0.642,0 0.901,-0.532 0.901,-1.109 0,-0.571 -0.246,-1.167 -0.901,-1.167 z m 1.641,2.769 -0.74,0 0,-0.461 -0.013,0 c -0.187,0.377 -0.57,0.552 -0.992,0.552 -0.953,0 -1.517,-0.779 -1.517,-1.68 0,-0.96 0.441,-1.764 1.504,-1.764 0.415,0 0.798,0.221 1.005,0.59 l 0.013,0 0,-0.512 c 0,-0.552 -0.266,-0.856 -0.862,-0.856 -0.376,0 -0.713,0.071 -0.804,0.493 l -0.74,0 c 0.065,-0.785 0.824,-1.044 1.498,-1.044 1.058,0 1.648,0.499 1.648,1.504 l 0,3.178"
         style="fill:#ffffff;fill-opacity:1;fill-rule:evenodd;stroke:none"
         id="path4220"
         inkscape:connector-curvature="0" /><path
         d="m 384.192,573.906 0.739,0 0,3.353 -0.739,0 0,-3.353 z m 0,3.93 0.739,0 0,0.7 -0.739,0 0,-0.7"
         style="fill:#ffffff;fill-opacity:1;fill-rule:evenodd;stroke:none"
         id="path4222"
         inkscape:connector-curvature="0" /><path
         d="m 388.776,575.391 c 0.123,1.005 -0.525,1.959 -1.582,1.959 -0.999,0 -1.621,-0.818 -1.621,-1.771 0,-1.031 0.59,-1.764 1.64,-1.764 0.733,0 1.356,0.409 1.518,1.142 l -0.701,0 c -0.129,-0.37 -0.389,-0.558 -0.817,-0.558 -0.616,0 -0.901,0.467 -0.901,0.992 l 2.464,0 z m -2.464,0.486 c 0.019,0.5 0.369,0.889 0.882,0.889 0.499,0 0.817,-0.421 0.843,-0.889 l -1.725,0"
         style="fill:#ffffff;fill-opacity:1;fill-rule:evenodd;stroke:none"
         id="path4224"
         inkscape:connector-curvature="0" /><path
         d="m 389.158,574.982 c 0.013,-0.791 0.642,-1.167 1.485,-1.167 0.694,0 1.498,0.292 1.498,1.09 0,0.661 -0.545,0.856 -1.083,0.979 -0.545,0.123 -1.089,0.175 -1.089,0.538 0,0.292 0.395,0.344 0.61,0.344 0.323,0 0.615,-0.097 0.68,-0.448 l 0.772,0 c -0.091,0.746 -0.713,1.032 -1.401,1.032 -0.609,0 -1.401,-0.227 -1.401,-0.96 0,-0.681 0.532,-0.876 1.077,-0.992 0.538,-0.124 1.076,-0.169 1.096,-0.558 0.019,-0.383 -0.467,-0.441 -0.746,-0.441 -0.395,0 -0.72,0.155 -0.759,0.583 l -0.739,0"
         style="fill:#ffffff;fill-opacity:1;fill-rule:nonzero;stroke:none"
         id="path4226"
         inkscape:connector-curvature="0" /><path
         d="m 349.434,582.078 c 0,0.603 0.247,1.219 0.941,1.219 0.57,0 0.927,-0.441 0.927,-1.18 0,-0.583 -0.279,-1.187 -0.94,-1.187 -0.642,0 -0.928,0.571 -0.928,1.148 z m 2.581,2.99 -0.739,0 0,-1.712 -0.013,0 c -0.227,0.369 -0.694,0.525 -1.115,0.525 -0.733,0 -1.453,-0.532 -1.453,-1.745 0,-1.005 0.512,-1.79 1.569,-1.79 0.422,0 0.843,0.163 1.038,0.545 l 0.013,0 0,-0.453 0.7,0 0,4.63"
         style="fill:#ffffff;fill-opacity:1;fill-rule:evenodd;stroke:none"
         id="path4228"
         inkscape:connector-curvature="0" /><path
         d="m 355.861,581.923 c 0.123,1.005 -0.526,1.958 -1.583,1.958 -0.999,0 -1.621,-0.817 -1.621,-1.77 0,-1.032 0.59,-1.765 1.64,-1.765 0.733,0 1.356,0.409 1.518,1.142 l -0.7,0 c -0.13,-0.37 -0.39,-0.558 -0.818,-0.558 -0.616,0 -0.901,0.467 -0.901,0.993 l 2.465,0 z m -2.465,0.486 c 0.019,0.499 0.37,0.888 0.882,0.888 0.499,0 0.817,-0.421 0.843,-0.888 l -1.725,0"
         style="fill:#ffffff;fill-opacity:1;fill-rule:evenodd;stroke:none"
         id="path4230"
         inkscape:connector-curvature="0" /><path
         d="m 361.229,582.668 c -0.072,0.824 -0.733,1.213 -1.512,1.213 -1.102,0 -1.653,-0.791 -1.653,-1.803 0,-0.985 0.577,-1.732 1.627,-1.732 0.863,0 1.401,0.481 1.538,1.35 l -0.74,0 c -0.071,-0.48 -0.369,-0.766 -0.798,-0.766 -0.641,0 -0.888,0.59 -0.888,1.148 0,1.018 0.538,1.219 0.921,1.219 0.408,0 0.707,-0.22 0.765,-0.629 l 0.74,0"
         style="fill:#ffffff;fill-opacity:1;fill-rule:nonzero;stroke:none"
         id="path4232"
         inkscape:connector-curvature="0" /><path
         d="m 363.368,580.93 c -0.661,0 -0.954,0.604 -0.954,1.187 0,0.577 0.293,1.18 0.954,1.18 0.661,0 0.953,-0.603 0.953,-1.18 0,-0.583 -0.292,-1.187 -0.953,-1.187 z m 0,-0.584 c 1.077,0 1.693,0.74 1.693,1.771 0,1.025 -0.616,1.764 -1.693,1.764 -1.077,0 -1.693,-0.739 -1.693,-1.764 0,-1.031 0.616,-1.771 1.693,-1.771"
         style="fill:#ffffff;fill-opacity:1;fill-rule:evenodd;stroke:none"
         id="path4234"
         inkscape:connector-curvature="0" /><path
         d="m 365.675,580.438 0.74,0 0,1.991 c 0,0.557 0.35,0.868 0.733,0.868 0.447,0 0.59,-0.246 0.59,-0.706 l 0,-2.153 0.739,0 0,1.964 c 0,0.565 0.214,0.895 0.714,0.895 0.577,0 0.609,-0.369 0.609,-0.901 l 0,-1.958 0.739,0 0,2.314 c 0,0.818 -0.415,1.129 -1.122,1.129 -0.486,0 -0.804,-0.214 -1.05,-0.558 -0.149,0.383 -0.532,0.558 -0.94,0.558 -0.532,0 -0.811,-0.227 -1.032,-0.558 l -0.019,0 0,0.467 -0.701,0 0,-3.352"
         style="fill:#ffffff;fill-opacity:1;fill-rule:nonzero;stroke:none"
         id="path4236"
         inkscape:connector-curvature="0" /><path
         d="m 373.917,582.111 c 0,-0.584 -0.253,-1.181 -0.927,-1.181 -0.597,0 -0.94,0.506 -0.94,1.181 0,0.713 0.317,1.186 0.94,1.186 0.61,0 0.927,-0.577 0.927,-1.186 z m -2.581,-2.912 0.739,0 0,1.673 0.014,0 c 0.233,-0.37 0.693,-0.526 1.122,-0.526 0.992,0 1.446,0.85 1.446,1.752 0,0.979 -0.513,1.783 -1.57,1.783 -0.428,0 -0.83,-0.162 -1.037,-0.545 l -0.013,0 0,0.454 -0.701,0 0,-4.591"
         style="fill:#ffffff;fill-opacity:1;fill-rule:evenodd;stroke:none"
         id="path4238"
         inkscape:connector-curvature="0" /><path
         d="m 378.32,581.923 c 0.123,1.005 -0.525,1.958 -1.582,1.958 -0.999,0 -1.622,-0.817 -1.622,-1.77 0,-1.032 0.591,-1.765 1.641,-1.765 0.733,0 1.356,0.409 1.518,1.142 l -0.701,0 c -0.129,-0.37 -0.389,-0.558 -0.817,-0.558 -0.616,0 -0.901,0.467 -0.901,0.993 l 2.464,0 z m -2.464,0.486 c 0.019,0.499 0.369,0.888 0.882,0.888 0.499,0 0.817,-0.421 0.843,-0.888 l -1.725,0"
         style="fill:#ffffff;fill-opacity:1;fill-rule:evenodd;stroke:none"
         id="path4240"
         inkscape:connector-curvature="0" /><path
         d="m 378.546,583.239 0.558,0 0,-1.978 c 0.013,-0.557 0.156,-0.856 0.928,-0.856 0.162,0 0.317,0.026 0.479,0.039 l 0,0.57 c -0.104,-0.025 -0.207,-0.025 -0.311,-0.025 -0.33,0 -0.357,0.155 -0.357,0.46 l 0,1.79 0.668,0 0,0.551 -0.668,0 0,1.005 -0.739,0 0,-1.005 -0.558,0 0,-0.551"
         style="fill:#ffffff;fill-opacity:1;fill-rule:nonzero;stroke:none"
         id="path4242"
         inkscape:connector-curvature="0" /><path
         d="m 381.489,585.178 0.921,-0.927 0.538,0 -0.59,0.927 -0.869,0 z m 2.594,-3.255 c 0.123,1.005 -0.526,1.958 -1.583,1.958 -0.998,0 -1.621,-0.817 -1.621,-1.77 0,-1.032 0.591,-1.765 1.641,-1.765 0.733,0 1.355,0.409 1.518,1.142 l -0.701,0 c -0.13,-0.37 -0.389,-0.558 -0.817,-0.558 -0.616,0 -0.902,0.467 -0.902,0.993 l 2.465,0 z m -2.465,0.486 c 0.02,0.499 0.37,0.888 0.882,0.888 0.5,0 0.818,-0.421 0.843,-0.888 l -1.725,0"
         style="fill:#ffffff;fill-opacity:1;fill-rule:evenodd;stroke:none"
         id="path4244"
         inkscape:connector-curvature="0" /><path
         d="m 384.646,580.438 0.74,0 0,1.977 c 0,0.493 0.318,0.882 0.81,0.882 0.435,0 0.642,-0.227 0.655,-0.752 l 0,-2.107 0.74,0 0,2.301 c 0,0.753 -0.461,1.142 -1.187,1.142 -0.441,0 -0.824,-0.227 -1.044,-0.597 l -0.013,0.013 0,0.493 -0.701,0 0,-3.352"
         style="fill:#ffffff;fill-opacity:1;fill-rule:nonzero;stroke:none"
         id="path4246"
         inkscape:connector-curvature="0" /><path
         d="m 391.371,582.668 c -0.071,0.824 -0.733,1.213 -1.511,1.213 -1.103,0 -1.654,-0.791 -1.654,-1.803 0,-0.985 0.578,-1.732 1.628,-1.732 0.862,0 1.401,0.481 1.537,1.35 l -0.739,0 c -0.071,-0.48 -0.37,-0.766 -0.798,-0.766 -0.642,0 -0.888,0.59 -0.888,1.148 0,1.018 0.538,1.219 0.92,1.219 0.409,0 0.707,-0.22 0.766,-0.629 l 0.739,0"
         style="fill:#ffffff;fill-opacity:1;fill-rule:nonzero;stroke:none"
         id="path4248"
         inkscape:connector-curvature="0" /><path
         d="m 391.993,580.438 0.739,0 0,3.352 -0.739,0 0,-3.352 z m 0,3.93 0.739,0 0,0.7 -0.739,0 0,-0.7"
         style="fill:#ffffff;fill-opacity:1;fill-rule:evenodd;stroke:none"
         id="path4250"
         inkscape:connector-curvature="0" /><path
         d="m 396.577,581.923 c 0.123,1.005 -0.525,1.958 -1.582,1.958 -0.999,0 -1.621,-0.817 -1.621,-1.77 0,-1.032 0.59,-1.765 1.64,-1.765 0.733,0 1.356,0.409 1.518,1.142 l -0.7,0 c -0.13,-0.37 -0.389,-0.558 -0.818,-0.558 -0.616,0 -0.901,0.467 -0.901,0.993 l 2.464,0 z m -2.464,0.486 c 0.019,0.499 0.369,0.888 0.882,0.888 0.5,0 0.817,-0.421 0.843,-0.888 l -1.725,0"
         style="fill:#ffffff;fill-opacity:1;fill-rule:evenodd;stroke:none"
         id="path4252"
         inkscape:connector-curvature="0" /><path
         d="m 396.959,581.514 c 0.013,-0.791 0.642,-1.168 1.485,-1.168 0.694,0 1.499,0.293 1.499,1.09 0,0.662 -0.545,0.856 -1.084,0.979 -0.545,0.124 -1.089,0.176 -1.089,0.539 0,0.292 0.396,0.343 0.61,0.343 0.324,0 0.615,-0.097 0.681,-0.447 l 0.771,0 c -0.091,0.746 -0.713,1.031 -1.401,1.031 -0.61,0 -1.401,-0.227 -1.401,-0.96 0,-0.681 0.533,-0.875 1.077,-0.992 0.538,-0.123 1.077,-0.168 1.096,-0.558 0.02,-0.382 -0.467,-0.441 -0.746,-0.441 -0.395,0 -0.719,0.156 -0.759,0.584 l -0.739,0"
         style="fill:#ffffff;fill-opacity:1;fill-rule:nonzero;stroke:none"
         id="path4254"
         inkscape:connector-curvature="0" /><path
         d="m 350.926,588.097 c 0,-0.467 -0.506,-0.635 -0.83,-0.635 -0.26,0 -0.681,0.097 -0.681,0.428 0,0.389 0.285,0.506 0.603,0.558 0.324,0.058 0.681,0.051 0.908,0.2 l 0,-0.551 z m 0.739,1.343 c 0,0.706 -0.687,0.973 -1.342,0.973 -0.739,0 -1.472,-0.253 -1.524,-1.116 l 0.739,0 c 0.033,0.363 0.325,0.532 0.739,0.532 0.299,0 0.694,-0.072 0.694,-0.454 0,-0.435 -0.473,-0.376 -1.005,-0.473 -0.623,-0.072 -1.291,-0.208 -1.291,-1.045 0,-0.655 0.545,-0.979 1.148,-0.979 0.396,0 0.87,0.123 1.161,0.409 0.059,-0.305 0.273,-0.409 0.571,-0.409 0.123,0 0.357,0.045 0.467,0.085 l 0,0.512 c -0.078,-0.013 -0.136,-0.013 -0.182,-0.013 -0.136,0 -0.175,0.071 -0.175,0.253 l 0,1.725"
         style="fill:#ffffff;fill-opacity:1;fill-rule:evenodd;stroke:none"
         id="path4256"
         inkscape:connector-curvature="0" /><path
         d="m 355.465,589.2 c -0.072,0.823 -0.733,1.213 -1.511,1.213 -1.103,0 -1.654,-0.792 -1.654,-1.803 0,-0.986 0.577,-1.732 1.628,-1.732 0.862,0 1.401,0.48 1.537,1.349 l -0.74,0 c -0.071,-0.48 -0.369,-0.765 -0.797,-0.765 -0.642,0 -0.889,0.59 -0.889,1.148 0,1.018 0.539,1.219 0.921,1.219 0.409,0 0.707,-0.221 0.765,-0.629 l 0.74,0"
         style="fill:#ffffff;fill-opacity:1;fill-rule:nonzero;stroke:none"
         id="path4258"
         inkscape:connector-curvature="0" /><path
         d="m 356.067,586.969 0.739,0 0,1.595 c 0,0.74 0.403,1.148 0.908,1.148 0.104,0 0.215,-0.019 0.318,-0.032 l 0,0.713 c -0.065,0.007 -0.11,0.02 -0.278,0.02 -0.455,0 -0.896,-0.383 -0.98,-0.74 l -0.013,0 0,0.649 -0.694,0 0,-3.353"
         style="fill:#ffffff;fill-opacity:1;fill-rule:nonzero;stroke:none"
         id="path4260"
         inkscape:connector-curvature="0" /><path
         d="m 361.273,588.454 c 0.123,1.005 -0.525,1.959 -1.582,1.959 -0.999,0 -1.621,-0.818 -1.621,-1.771 0,-1.031 0.59,-1.764 1.64,-1.764 0.733,0 1.356,0.409 1.518,1.142 l -0.701,0 c -0.129,-0.37 -0.389,-0.558 -0.817,-0.558 -0.616,0 -0.901,0.467 -0.901,0.992 l 2.464,0 z m -2.464,0.486 c 0.019,0.5 0.37,0.889 0.882,0.889 0.499,0 0.817,-0.422 0.843,-0.889 l -1.725,0"
         style="fill:#ffffff;fill-opacity:1;fill-rule:evenodd;stroke:none"
         id="path4262"
         inkscape:connector-curvature="0" /><path
         d="m 362.414,588.61 c 0,0.603 0.246,1.219 0.94,1.219 0.571,0 0.928,-0.441 0.928,-1.181 0,-0.583 -0.279,-1.186 -0.941,-1.186 -0.642,0 -0.927,0.57 -0.927,1.148 z m 2.581,2.989 -0.74,0 0,-1.712 -0.012,0 c -0.227,0.37 -0.694,0.526 -1.116,0.526 -0.732,0 -1.452,-0.532 -1.452,-1.745 0,-1.005 0.512,-1.79 1.569,-1.79 0.422,0 0.843,0.162 1.038,0.545 l 0.013,0 0,-0.454 0.7,0 0,4.63"
         style="fill:#ffffff;fill-opacity:1;fill-rule:evenodd;stroke:none"
         id="path4264"
         inkscape:connector-curvature="0" /><path
         d="m 365.818,586.969 0.739,0 0,3.353 -0.739,0 0,-3.353 z m 0,3.93 0.739,0 0,0.7 -0.739,0 0,-0.7"
         style="fill:#ffffff;fill-opacity:1;fill-rule:evenodd;stroke:none"
         id="path4266"
         inkscape:connector-curvature="0" /><path
         d="m 367.023,589.771 0.558,0 0,-1.978 c 0.013,-0.558 0.156,-0.857 0.928,-0.857 0.162,0 0.318,0.027 0.48,0.039 l 0,0.571 c -0.104,-0.026 -0.208,-0.026 -0.312,-0.026 -0.331,0 -0.357,0.156 -0.357,0.46 l 0,1.791 0.669,0 0,0.551 -0.669,0 0,1.005 -0.739,0 0,-1.005 -0.558,0 0,-0.551"
         style="fill:#ffffff;fill-opacity:1;fill-rule:nonzero;stroke:none"
         id="path4268"
         inkscape:connector-curvature="0" /><path
         d="m 371.587,588.097 c 0,-0.467 -0.506,-0.635 -0.83,-0.635 -0.259,0 -0.681,0.097 -0.681,0.428 0,0.389 0.286,0.506 0.603,0.558 0.325,0.058 0.681,0.051 0.908,0.2 l 0,-0.551 z m 0.74,1.343 c 0,0.706 -0.688,0.973 -1.343,0.973 -0.739,0 -1.472,-0.253 -1.524,-1.116 l 0.74,0 c 0.032,0.363 0.324,0.532 0.739,0.532 0.298,0 0.693,-0.072 0.693,-0.454 0,-0.435 -0.473,-0.376 -1.005,-0.473 -0.622,-0.072 -1.29,-0.208 -1.29,-1.045 0,-0.655 0.545,-0.979 1.148,-0.979 0.395,0 0.869,0.123 1.161,0.409 0.058,-0.305 0.272,-0.409 0.57,-0.409 0.123,0 0.357,0.045 0.467,0.085 l 0,0.512 c -0.078,-0.013 -0.136,-0.013 -0.181,-0.013 -0.137,0 -0.175,0.071 -0.175,0.253 l 0,1.725"
         style="fill:#ffffff;fill-opacity:1;fill-rule:evenodd;stroke:none"
         id="path4270"
         inkscape:connector-curvature="0" /><path
         d="m 376.126,589.2 c -0.071,0.823 -0.733,1.213 -1.511,1.213 -1.102,0 -1.654,-0.792 -1.654,-1.803 0,-0.986 0.577,-1.732 1.628,-1.732 0.863,0 1.401,0.48 1.537,1.349 l -0.739,0 c -0.071,-0.48 -0.37,-0.765 -0.798,-0.765 -0.642,0 -0.888,0.59 -0.888,1.148 0,1.018 0.538,1.219 0.92,1.219 0.409,0 0.708,-0.221 0.766,-0.629 l 0.739,0"
         style="fill:#ffffff;fill-opacity:1;fill-rule:nonzero;stroke:none"
         id="path4272"
         inkscape:connector-curvature="0" /><path
         d="m 376.748,586.969 0.739,0 0,3.353 -0.739,0 0,-3.353 z m 0,3.93 0.739,0 0,0.7 -0.739,0 0,-0.7"
         style="fill:#ffffff;fill-opacity:1;fill-rule:evenodd;stroke:none"
         id="path4274"
         inkscape:connector-curvature="0" /><path
         d="m 379.335,590.782 0.538,0 0.921,0.927 -0.875,0 -0.584,-0.927 z m 0.493,-3.32 c -0.662,0 -0.953,0.603 -0.953,1.186 0,0.578 0.291,1.181 0.953,1.181 0.661,0 0.953,-0.603 0.953,-1.181 0,-0.583 -0.292,-1.186 -0.953,-1.186 z m 0,-0.584 c 1.076,0 1.692,0.74 1.692,1.77 0,1.025 -0.616,1.765 -1.692,1.765 -1.077,0 -1.693,-0.74 -1.693,-1.765 0,-1.03 0.616,-1.77 1.693,-1.77"
         style="fill:#ffffff;fill-opacity:1;fill-rule:evenodd;stroke:none"
         id="path4276"
         inkscape:connector-curvature="0" /><path
         d="m 293.964,558.864 c -0.885,0.886 -1.336,2.038 -1.321,3.208 l 0.002,7.924 c -0.006,0.858 0.333,1.731 0.993,2.391 0.663,0.663 1.531,0.993 2.399,0.993 l 7.943,0 c 1.143,-0.011 2.3,-0.443 3.179,-1.321 0.433,-0.434 6.143,-6.145 6.734,-6.735 0.886,-0.886 1.336,-2.038 1.322,-3.209 l -0.002,-7.924 c 0.005,-0.857 -0.334,-1.73 -0.994,-2.39 -0.662,-0.663 -1.53,-0.994 -2.398,-0.994 l -7.943,0 c -1.143,0.011 -2.301,0.444 -3.179,1.322 -0.433,0.434 -6.144,6.144 -6.735,6.735"
         style="fill:#ed192d;fill-opacity:1;fill-rule:nonzero;stroke:none"
         id="path4278"
         inkscape:connector-curvature="0" /><path
         d="m 289.279,558.812 c 0.885,0.886 1.336,2.038 1.321,3.208 l -0.002,7.924 c 0.006,0.858 -0.333,1.73 -0.993,2.391 -0.663,0.662 -1.531,0.993 -2.399,0.993 l -7.942,0 c -1.143,-0.011 -2.301,-0.444 -3.179,-1.322 -0.433,-0.433 -6.144,-6.144 -6.734,-6.735 -0.886,-0.885 -1.337,-2.037 -1.322,-3.208 l 0.003,-7.924 c -0.007,-0.857 0.332,-1.73 0.993,-2.39 0.662,-0.662 1.53,-0.994 2.398,-0.993 l 7.943,0 c 1.143,0.011 2.3,0.444 3.179,1.322 0.433,0.433 6.143,6.143 6.734,6.734"
         style="fill:#ed192d;fill-opacity:1;fill-rule:nonzero;stroke:none"
         id="path4280"
         inkscape:connector-curvature="0" /><path
         d="m 269.347,583.476 c -0.885,0.886 -1.336,2.038 -1.322,3.208 l 0.003,7.924 c -0.006,0.857 0.333,1.73 0.993,2.39 0.663,0.662 1.531,0.993 2.399,0.993 l 7.942,0 c 1.143,-0.011 2.301,-0.444 3.179,-1.321 0.433,-0.434 6.143,-6.144 6.733,-6.735 0.886,-0.885 1.337,-2.037 1.322,-3.208 l -0.003,-7.923 c 0.007,-0.858 -0.332,-1.731 -0.993,-2.391 -0.662,-0.662 -1.53,-0.993 -2.398,-0.993 l -7.942,0 c -1.143,0.011 -2.301,0.444 -3.179,1.322 -0.433,0.433 -6.143,6.144 -6.734,6.734"
         style="fill:#ed192d;fill-opacity:1;fill-rule:nonzero;stroke:none"
         id="path4282"
         inkscape:connector-curvature="0" /><path
         d="m 292.636,586.999 c 0,1.817 1.473,3.289 3.289,3.289 l 8.289,0 c 1.817,0 3.29,-1.472 3.29,-3.289 l 0,-8.289 c 0,-1.817 -1.473,-3.29 -3.29,-3.29 l -8.289,0 c -1.816,0 -3.289,1.473 -3.289,3.29 l 0,8.289"
         style="fill:#ed192d;fill-opacity:1;fill-rule:nonzero;stroke:none"
         id="path4284"
         inkscape:connector-curvature="0" /></g></g></svg>